<svg width="130" height="130" viewBox="0 0 130 130" fill="none" xmlns="http://www.w3.org/2000/svg">
<circle cx="65" cy="65" r="65" fill="#121E2A"/>
<circle cx="65" cy="65" r="65" fill="url(#paint0_radial_20_4)"/>
<path d="M78.9648 76.1719V74.1719H77.079L76.9683 76.0544L78.9648 76.1719ZM94.7852 76.1719L96.7823 76.2784L96.8947 74.1719H94.7852V76.1719ZM90.7812 89.1113L89.0994 88.0291L89.097 88.0328L90.7812 89.1113ZM80.8691 97.8516L81.7525 99.6459L81.7636 99.6404L80.8691 97.8516ZM43.9062 91.748L42.3807 93.0414L42.3883 93.0503L42.396 93.0592L43.9062 91.748ZM38.0469 80.957L36.1395 81.5586L36.1423 81.5674L36.1451 81.5762L38.0469 80.957ZM44.1504 37.1582L42.6412 35.8458L44.1504 37.1582ZM81.0645 31.1523L81.9919 29.3804L81.0645 31.1523ZM90.7324 40.1367L89.0161 41.1636L89.0226 41.1743L90.7324 40.1367ZM94.8828 53.1738V55.1738H97.0782L96.8742 52.988L94.8828 53.1738ZM79.0137 53.1738L77.0159 53.2678L77.1056 55.1738H79.0137V53.1738ZM77.4512 46.1914L75.6443 47.0489L75.6501 47.0609L77.4512 46.1914ZM59.7266 41.6504L58.8457 39.8548L58.8389 39.8581L58.8321 39.8615L59.7266 41.6504ZM55.4785 45.6055L53.7912 44.5317L53.7842 44.5427L53.7773 44.5538L55.4785 45.6055ZM52.9883 52.4414L54.9485 52.8381L54.9494 52.8336L52.9883 52.4414ZM55.2344 83.1543L53.5194 84.1833L53.5262 84.1947L53.5332 84.2059L55.2344 83.1543ZM72.8613 87.1582L73.7054 88.9714L73.7181 88.9654L73.7308 88.9593L72.8613 87.1582ZM77.207 83.0566L75.4572 82.088L77.207 83.0566ZM78.9648 78.1719H94.7852V74.1719H78.9648V78.1719ZM92.788 76.0654C92.5442 80.6361 91.302 84.6061 89.0994 88.0291L92.4631 90.1936C95.0782 86.1296 96.5053 81.4732 96.7823 76.2784L92.788 76.0654ZM89.097 88.0328C86.9295 91.4177 83.9086 94.0958 79.9747 96.0627L81.7636 99.6404C86.2932 97.3756 89.8804 94.2268 92.4655 90.1899L89.097 88.0328ZM79.9858 96.0572C76.0858 97.9772 71.3724 98.9766 65.7812 98.9766V102.977C71.8438 102.977 77.1889 101.893 81.7525 99.6459L79.9858 96.0572ZM65.7812 98.9766C61.3564 98.9766 57.467 98.2191 54.0769 96.7491L52.4856 100.419C56.4523 102.139 60.8962 102.977 65.7812 102.977V98.9766ZM54.0769 96.7491C50.6667 95.2703 47.7877 93.1682 45.4165 90.4369L42.396 93.0592C45.168 96.2523 48.5391 98.7076 52.4856 100.419L54.0769 96.7491ZM45.4318 90.4547C43.0804 87.6813 41.2454 84.3208 39.9486 80.3379L36.1451 81.5762C37.5827 85.9917 39.654 89.8252 42.3807 93.0414L45.4318 90.4547ZM39.9543 80.3555C38.6916 76.3521 38.0449 71.791 38.0449 66.6504H34.0449C34.0449 72.1218 34.7328 77.0985 36.1395 81.5586L39.9543 80.3555ZM38.0449 66.6504V62.3047H34.0449V66.6504H38.0449ZM38.0449 62.3047C38.0449 57.1726 38.722 52.6209 40.0434 48.6261L36.2457 47.37C34.7676 51.8387 34.0449 56.8247 34.0449 62.3047H38.0449ZM40.0434 48.6261C41.3701 44.6151 43.2495 41.2421 45.6596 38.4706L42.6412 35.8458C39.8429 39.0639 37.7185 42.9175 36.2457 47.37L40.0434 48.6261ZM45.6596 38.4706C48.0688 35.7 50.9519 33.5824 54.327 32.1058L52.7238 28.4411C48.8072 30.1546 45.4403 32.6268 42.6412 35.8458L45.6596 38.4706ZM54.327 32.1058C57.6894 30.6347 61.4806 29.8809 65.7324 29.8809V25.8809C60.9998 25.8809 56.653 26.7221 52.7238 28.4411L54.327 32.1058ZM65.7324 29.8809C71.5542 29.8809 76.3269 30.93 80.137 32.9243L81.9919 29.3804C77.4687 27.0127 72.02 25.8809 65.7324 25.8809V29.8809ZM80.137 32.9243C83.9974 34.945 86.9382 37.6904 89.0161 41.1636L92.4487 39.1099C89.9694 34.9659 86.4649 31.7217 81.9919 29.3804L80.137 32.9243ZM89.0226 41.1743C91.1614 44.6988 92.461 48.7476 92.8915 53.3597L96.8742 52.988C96.3932 47.8344 94.9258 43.1919 92.4422 39.0991L89.0226 41.1743ZM94.8828 51.1738H79.0137V55.1738H94.8828V51.1738ZM81.0115 53.0798C80.8725 50.1259 80.312 47.517 79.2523 45.3219L75.6501 47.0609C76.4133 48.6419 76.8945 50.6879 77.0159 53.2678L81.0115 53.0798ZM79.258 45.3339C78.159 43.0182 76.4474 41.2468 74.1708 40.0693L72.3331 43.6221C73.8325 44.3977 74.9204 45.5235 75.6443 47.0489L79.258 45.3339ZM74.1708 40.0693C71.8967 38.893 69.0381 38.3809 65.7324 38.3809V42.3809C68.6767 42.3809 70.8311 42.8453 72.3331 43.6221L74.1708 40.0693ZM65.7324 38.3809C63.2047 38.3809 60.8915 38.8512 58.8457 39.8548L60.6074 43.446C62.0121 42.7569 63.7029 42.3809 65.7324 42.3809V38.3809ZM58.8321 39.8615C56.7771 40.889 55.1009 42.4736 53.7912 44.5317L57.1658 46.6792C58.1348 45.1566 59.2906 44.1044 60.621 43.4392L58.8321 39.8615ZM53.7773 44.5538C52.5107 46.6027 51.6123 49.1234 51.0271 52.0492L54.9494 52.8336C55.4711 50.2256 56.2328 48.1889 57.1797 46.6571L53.7773 44.5538ZM51.028 52.0447C50.4408 54.9462 50.1582 58.3411 50.1582 62.207H54.1582C54.1582 58.5209 54.429 55.4054 54.9485 52.8381L51.028 52.0447ZM50.1582 62.207V66.6504H54.1582V62.207H50.1582ZM50.1582 66.6504C50.1582 70.474 50.407 73.8363 50.9218 76.7188L54.8595 76.0156C54.3976 73.4293 54.1582 70.3137 54.1582 66.6504H50.1582ZM50.9218 76.7188C51.4395 79.618 52.2863 82.1281 53.5194 84.1833L56.9494 82.1253C56.034 80.5997 55.3183 78.5851 54.8595 76.0156L50.9218 76.7188ZM53.5332 84.2059C54.8152 86.2797 56.4948 87.8808 58.5746 88.9403L60.3903 85.3761C59.0196 84.6778 57.8671 83.6096 56.9356 82.1027L53.5332 84.2059ZM58.5746 88.9403C60.6481 89.9966 63.0768 90.4766 65.7812 90.4766V86.4766C63.5377 86.4766 61.7672 86.0776 60.3903 85.3761L58.5746 88.9403ZM65.7812 90.4766C68.8057 90.4766 71.4758 90.0093 73.7054 88.9714L72.0173 85.345C70.4708 86.065 68.4208 86.4766 65.7812 86.4766V90.4766ZM73.7308 88.9593C75.9888 87.8692 77.7461 86.2124 78.9568 84.0253L75.4572 82.088C74.6498 83.5467 73.5099 84.6242 71.9918 85.3571L73.7308 88.9593ZM78.9568 84.0253C80.1504 81.8691 80.7866 79.2608 80.9614 76.2893L76.9683 76.0544C76.8176 78.6168 76.2819 80.5983 75.4572 82.088L78.9568 84.0253Z" fill="white"/>
<defs>
<radialGradient id="paint0_radial_20_4" cx="0" cy="0" r="1" gradientUnits="userSpaceOnUse" gradientTransform="translate(65 65) rotate(90) scale(65)">
<stop stop-color="#0171C2" stop-opacity="0.3"/>
<stop offset="0.5625" stop-color="#0171C2" stop-opacity="0.15"/>
<stop offset="1" stop-color="#0171C2" stop-opacity="0"/>
</radialGradient>
</defs>
</svg>
